<svg xmlns="http://www.w3.org/2000/svg" width="256" height="256" viewBox="0 0 100 100"><path fill="#06b6d4" d="M7.99 49.91L34.48 63.67Q34.56 64.10 34.56 64.45Q34.56 64.79 34.56 65.22L34.56 65.22Q34.56 66.51 33.70 67.37Q32.84 68.23 31.38 68.23L31.38 68.23Q30.18 68.23 28.37 67.11L28.37 67.11L2.14 52.84Q1.28 51.55 1.28 50.00L1.28 50.00Q1.28 47.59 2.74 46.73L2.74 46.73L31.47 32.03Q34.31 33.06 34.31 35.29L34.31 35.29Q34.31 36.76 33.45 37.57Q32.59 38.39 31.21 39.25L31.21 39.25L7.99 49.91ZM60.88 22.39L44.97 84.83Q44.45 84.92 43.94 84.96Q43.42 85.00 42.73 85.00L42.73 85.00Q39.38 85.00 39.38 81.91L39.38 81.91Q39.38 80.96 39.72 79.67Q40.07 78.38 40.24 77.61L40.24 77.61L56.06 15.17Q56.58 15.08 57.14 15.04Q57.70 15.00 58.30 15.00L58.30 15.00Q59.76 15.00 60.71 15.73Q61.65 16.46 61.65 18.09L61.65 18.09Q61.65 19.04 61.40 20.20Q61.14 21.36 60.88 22.39L60.88 22.39ZM92.01 49.83L66.38 36.33Q66.30 35.90 66.30 35.55Q66.30 35.21 66.30 34.78L66.30 34.78Q66.30 33.57 67.11 32.67Q67.93 31.77 69.39 31.77L69.39 31.77Q70.08 31.77 70.81 32.07Q71.54 32.37 72.40 32.80L72.40 32.80L97.86 47.08Q98.72 48.37 98.72 50.00L98.72 50.00Q98.72 51.29 98.33 52.06Q97.95 52.84 97.26 53.27L97.26 53.27L69.39 67.89Q67.93 67.46 67.24 66.56Q66.56 65.65 66.56 64.62L66.56 64.62Q66.56 63.24 67.37 62.34Q68.19 61.44 69.65 60.75L69.65 60.75L92.01 49.83Z"></path></svg>